<?xml version="1.0" encoding="utf-8"?>
<!-- Generator: Adobe Illustrator 19.1.0, SVG Export Plug-In . SVG Version: 6.00 Build 0)  -->
<!DOCTYPE svg PUBLIC "-//W3C//DTD SVG 1.1//EN" "http://www.w3.org/Graphics/SVG/1.1/DTD/svg11.dtd">
<svg version="1.1" id="Layer_1" xmlns="http://www.w3.org/2000/svg" xmlns:xlink="http://www.w3.org/1999/xlink" x="0px" y="0px"
	 viewBox="-289 381 32 32" style="enable-background:new -289 381 32 32;" xml:space="preserve">
<style type="text/css">
	.st0{fill:#FFFFFF;}
</style>
<g id="Layer_1_1_">
</g>
<g id="behance">
	<g>
		<path class="st0" d="M-276.7,397.2h-4.4v4.1h4.2c0.6,0,1.8-0.2,1.8-2C-275.1,397.2-276.7,397.2-276.7,397.2z"/>
		<path class="st0" d="M-265.4,394.8c-2.4,0-2.7,2.3-2.7,2.3h5C-263.1,397.2-263.1,394.8-265.4,394.8z"/>
		<path class="st0" d="M-275.7,393c0-1.6-1.1-1.6-1.1-1.6h-0.6h-3.9v3.4h4.2C-276.3,394.8-275.7,394.6-275.7,393z"/>
		<path class="st0" d="M-273,380.9c-8.8,0-16,7.2-16,16s7.2,16,16,16s16-7.2,16-16S-264.2,380.9-273,380.9z M-268.7,389.6h6.3v1.9
			h-6.3V389.6z M-271.9,399.5c0,4.6-4.8,4.5-4.8,4.5h-4.4h-0.1h-3.4v-15.2h3.4h0.1h4.4c2.4,0,4.3,1.3,4.3,4.1c0,2.7-2.3,2.9-2.3,2.9
			C-271.7,395.7-271.9,399.5-271.9,399.5z M-265.4,401.9c2.5,0,2.4-1.6,2.4-1.6h2.7c0,4.3-5.2,4-5.2,4c-6.2,0-5.8-5.8-5.8-5.8
			s0-5.8,5.8-5.8c6.2,0,5.3,6.6,5.3,6.6h-7.9C-268.1,402.1-265.4,401.9-265.4,401.9z"/>
	</g>
</g>
</svg>
