<?xml version="1.0" encoding="utf-8"?>
<!-- Generator: Adobe Illustrator 19.1.0, SVG Export Plug-In . SVG Version: 6.00 Build 0)  -->
<!DOCTYPE svg PUBLIC "-//W3C//DTD SVG 1.1//EN" "http://www.w3.org/Graphics/SVG/1.1/DTD/svg11.dtd">
<svg version="1.1" xmlns="http://www.w3.org/2000/svg" xmlns:xlink="http://www.w3.org/1999/xlink" x="0px" y="0px"
	 viewBox="-289 381 32 32" style="enable-background:new -289 381 32 32;" xml:space="preserve">
<style type="text/css">
	.st0{fill-rule:evenodd;clip-rule:evenodd;fill:#FFFFFF;}
</style>
<g id="Layer_1">
	<path class="st0" d="M-273,381c-8.8,0-16,7.2-16,16s7.2,16,16,16s16-7.2,16-16S-264.2,381-273,381z M-261.9,391.3
		c-0.3,1.4-2.1,6.4-5.3,10.9c-1.4,1.9-3.1,3.7-5.2,5c-0.8,0.5-2.4,1.1-3.4,0.6c-2-0.9-2.8-4.4-3.3-6.7c-0.3-1.4-0.7-2.7-1.1-3.9
		c-0.3-0.9-0.5-1.8-1-2.7c-0.8-1.4-2-0.1-3.2-0.2c-0.5-0.1-0.6-0.6-1-1v-0.1c1.8-1.4,3.4-3.1,5.4-4.4c0.6-0.4,1.8-0.8,2.6-0.5
		c0.8,0.2,1.5,1.4,1.8,2.3c0.3,1.1,0.5,2.4,0.7,3.4c0.3,1.9,0.2,4.7,1.6,6.1c1.5,1.6,2.7-0.6,3.3-1.8c0.5-1,1-2,1.1-3
		c0.2-2.3-0.9-2.6-2.9-2.4c1.2-3.6,4.6-5.1,5.6-5.3c1.2-0.2,3.1-0.2,3.9,0.9C-261.7,389.3-261.7,390.3-261.9,391.3z"/>
</g>
<g id="behance">
</g>
</svg>
